<?xml version="1.0" standalone="no"?>
<!DOCTYPE svg PUBLIC "-//W3C//DTD SVG 20010904//EN"
 "http://www.w3.org/TR/2001/REC-SVG-20010904/DTD/svg10.dtd">
<svg version="1.0" xmlns="http://www.w3.org/2000/svg"
 width="700.000000pt" height="700.000000pt" viewBox="0 0 700.000000 700.000000"
 preserveAspectRatio="xMidYMid meet">
<metadata>
Created by potrace 1.14, written by Peter Selinger 2001-2017
</metadata>
<g transform="translate(0.000000,700.000000) scale(0.100000,-0.100000)"
fill="#000000" stroke="none">
<path d="M3426 6478 c-80 -47 -76 -6 -76 -778 1 -626 2 -688 18 -717 61 -113
227 -104 273 15 5 14 9 322 9 709 -1 678 -1 684 -22 716 -48 75 -131 97 -202
55z"/>
<path d="M2397 5402 c-31 -19 -47 -52 -47 -99 0 -28 32 -91 142 -282 77 -135
150 -257 160 -271 38 -48 90 -62 143 -38 54 25 71 108 35 173 -52 92 -245 425
-268 461 -14 23 -35 47 -46 54 -30 19 -89 20 -119 2z"/>
<path d="M4496 5405 c-35 -18 -44 -31 -110 -145 -27 -47 -57 -98 -66 -115 -10
-16 -50 -86 -90 -155 -40 -69 -75 -142 -77 -162 -14 -96 72 -157 157 -113 25
13 48 44 95 127 6 10 63 110 128 222 126 218 135 247 100 307 -16 27 -57 49
-92 49 -9 0 -29 -7 -45 -15z"/>
<path d="M1634 4639 c-50 -25 -66 -111 -28 -161 10 -14 137 -93 281 -177 277
-160 300 -168 362 -137 30 16 51 54 51 93 0 60 -29 83 -303 241 -221 128 -270
152 -303 151 -21 0 -48 -5 -60 -10z"/>
<path d="M5219 4621 c-202 -108 -482 -280 -499 -306 -54 -82 9 -176 108 -163
35 5 399 207 525 291 49 33 69 70 62 118 -11 88 -96 114 -196 60z"/>
<path d="M3450 4611 c-288 -75 -528 -239 -702 -478 -53 -73 -135 -235 -163
-320 -44 -137 -61 -350 -41 -496 12 -86 56 -220 101 -312 218 -438 695 -662
1140 -535 250 72 467 266 564 507 43 106 55 173 55 303 0 386 -312 711 -683
712 -252 1 -471 -145 -561 -372 -27 -68 -33 -109 -32 -197 3 -207 134 -384
327 -446 80 -25 198 -19 277 16 70 31 152 112 184 182 89 194 -42 427 -240
425 -85 -1 -161 -46 -196 -116 -44 -89 -25 -178 49 -232 35 -25 49 -30 88 -26
54 4 87 23 114 67 l20 32 -5 -28 c-19 -109 -151 -168 -262 -118 -192 87 -211
357 -37 511 60 52 106 76 180 93 298 68 593 -207 578 -538 -19 -393 -412 -679
-820 -596 -240 48 -458 226 -570 464 -108 228 -106 507 4 742 142 303 421 518
755 580 67 12 86 20 109 45 31 34 34 67 12 111 -30 57 -87 62 -245 20z"/>
<path d="M583 3629 c-64 -31 -91 -89 -78 -163 8 -39 53 -92 91 -106 15 -6 298
-10 707 -10 674 0 682 0 717 21 48 29 68 57 76 105 6 44 -14 107 -44 134 -44
40 -50 40 -750 40 -664 0 -678 0 -719 -21z"/>
<path d="M4995 3638 c-116 -42 -126 -204 -17 -266 l40 -22 682 0 683 0 41 24
c53 31 71 65 71 131 -1 59 -25 99 -78 127 -29 16 -89 17 -712 17 -458 0 -690
-4 -710 -11z"/>
<path d="M2112 2826 c-147 -76 -490 -282 -507 -305 -31 -41 -27 -103 9 -140
24 -26 38 -31 74 -31 38 0 68 14 201 90 86 50 167 97 181 104 199 113 230 141
230 201 0 34 -24 81 -47 90 -58 24 -80 22 -141 -9z"/>
<path d="M4744 2832 c-61 -49 -58 -131 6 -179 14 -11 136 -83 271 -161 197
-114 253 -142 283 -142 79 0 126 56 110 132 -9 46 -40 69 -264 195 -25 14
-102 59 -171 99 -105 62 -133 74 -170 74 -26 0 -52 -7 -65 -18z"/>
<path d="M2695 2288 c-11 -7 -26 -18 -33 -25 -11 -11 -212 -350 -212 -358 0
-1 -22 -40 -50 -86 -52 -88 -62 -132 -39 -183 16 -34 72 -60 114 -52 49 9 71
37 180 227 55 96 105 181 110 191 91 153 101 189 70 249 -24 45 -94 64 -140
37z"/>
<path d="M4205 2288 c-36 -21 -48 -39 -53 -83 -4 -35 1 -55 23 -97 38 -72 48
-89 66 -118 9 -14 60 -101 114 -194 53 -94 107 -178 119 -187 50 -41 140 -27
165 27 27 61 18 85 -141 361 -160 277 -181 303 -244 303 -16 0 -38 -6 -49 -12z"/>
<path d="M3429 2080 c-20 -10 -45 -32 -55 -47 -18 -27 -19 -59 -22 -718 -2
-634 -1 -693 14 -728 21 -45 85 -87 133 -87 51 0 108 35 131 80 20 39 20 56
20 726 -1 627 -2 688 -18 712 -49 79 -127 102 -203 62z"/>
</g>
</svg>
